<svg width="124" height="124" viewBox="0 0 124 124" fill="none" xmlns="http://www.w3.org/2000/svg">
<path d="M90.4168 124C71.8994 124 56.8334 108.934 56.8334 90.4164C56.8334 71.8991 71.8994 56.8331 90.4168 56.8331C108.934 56.8331 124 71.8991 124 90.4164C124 108.934 108.934 124 90.4168 124ZM90.4168 61.9998C74.7514 61.9998 62.0001 74.7511 62.0001 90.4164C62.0001 106.082 74.7514 118.833 90.4168 118.833C106.082 118.833 118.833 106.082 118.833 90.4164C118.833 74.7511 106.082 61.9998 90.4168 61.9998Z" fill="#F4F7FA"/>
<path d="M105.917 93.0002C105.255 93.0002 104.594 92.7471 104.088 92.2459L90.4167 78.5697L76.7457 92.2407C75.7382 93.2482 74.1003 93.2482 73.0928 92.2407C72.0853 91.2332 72.0853 89.5954 73.0928 88.5879L88.5928 73.0879C89.6003 72.0804 91.2382 72.0804 92.2457 73.0879L107.746 88.5879C108.753 89.5954 108.753 91.2332 107.746 92.2407C107.239 92.7471 106.578 93.0002 105.917 93.0002V93.0002Z" fill="#F4F7FA"/>
<path d="M90.4168 108.5C88.9908 108.5 87.8334 107.342 87.8334 105.916V74.9165C87.8334 73.4905 88.9908 72.3331 90.4168 72.3331C91.8428 72.3331 93.0001 73.4905 93.0001 74.9165V105.916C93.0001 107.342 91.8428 108.5 90.4168 108.5Z" fill="#F4F7FA"/>
<path d="M49.0833 108.5H12.9167C5.79183 108.5 0 102.708 0 95.5833V28.4167C0 21.2918 5.79183 15.5 12.9167 15.5H23.25C24.676 15.5 25.8333 16.6573 25.8333 18.0833C25.8333 19.5093 24.676 20.6667 23.25 20.6667H12.9167C8.64383 20.6667 5.16667 24.1438 5.16667 28.4167V95.5833C5.16667 99.8561 8.64383 103.333 12.9167 103.333H49.0833C50.5093 103.333 51.6667 104.491 51.6667 105.917C51.6667 107.343 50.5093 108.5 49.0833 108.5Z" fill="#F4F7FA"/>
<path d="M59.4165 31H28.4166C24.1437 31 20.6666 27.5228 20.6666 23.25V12.9167C20.6666 11.4907 21.8239 10.3333 23.2499 10.3333H31.2582C32.4569 4.44333 37.6804 0 43.9166 0C50.1527 0 55.3762 4.44333 56.5749 10.3333H64.5832C66.0092 10.3333 67.1665 11.4907 67.1665 12.9167V23.25C67.1665 27.5228 63.6894 31 59.4165 31ZM25.8332 15.5V23.25C25.8332 24.6708 26.9957 25.8333 28.4166 25.8333H59.4165C60.8374 25.8333 61.9999 24.6708 61.9999 23.25V15.5H54.2499C52.8239 15.5 51.6666 14.3427 51.6666 12.9167C51.6666 8.64383 48.1894 5.16666 43.9166 5.16666C39.6437 5.16666 36.1666 8.64383 36.1666 12.9167C36.1666 14.3427 35.0092 15.5 33.5832 15.5H25.8332Z" fill="#F4F7FA"/>
<path d="M69.75 46.4998H18.0833C16.6573 46.4998 15.5 45.3425 15.5 43.9165C15.5 42.4905 16.6573 41.3331 18.0833 41.3331H69.75C71.176 41.3331 72.3333 42.4905 72.3333 43.9165C72.3333 45.3425 71.176 46.4998 69.75 46.4998Z" fill="#F4F7FA"/>
<path d="M54.25 61.9998H18.0833C16.6573 61.9998 15.5 60.8425 15.5 59.4165C15.5 57.9905 16.6573 56.8331 18.0833 56.8331H54.25C55.676 56.8331 56.8333 57.9905 56.8333 59.4165C56.8333 60.8425 55.676 61.9998 54.25 61.9998Z" fill="#F4F7FA"/>
<path d="M43.9167 77.4998H18.0833C16.6573 77.4998 15.5 76.3425 15.5 74.9165C15.5 73.4905 16.6573 72.3331 18.0833 72.3331H43.9167C45.3427 72.3331 46.5 73.4905 46.5 74.9165C46.5 76.3425 45.3427 77.4998 43.9167 77.4998Z" fill="#F4F7FA"/>
<path d="M85.25 46.5C83.824 46.5 82.6667 45.3427 82.6667 43.9167V28.4167C82.6667 24.1438 79.1895 20.6667 74.9167 20.6667H64.5833C63.1573 20.6667 62 19.5093 62 18.0833C62 16.6573 63.1573 15.5 64.5833 15.5H74.9167C82.0415 15.5 87.8333 21.2918 87.8333 28.4167V43.9167C87.8333 45.3427 86.676 46.5 85.25 46.5Z" fill="#F4F7FA"/>
</svg>
