<svg width="154" height="52" viewBox="0 0 154 52" fill="none" xmlns="http://www.w3.org/2000/svg">
<path d="M12.144 52H0.0480005V0.591997H29.928V10.528H12.144V22.192H28.632V32.128H12.144V52ZM104.66 0.591997L91.7721 52H77.5161L71.5401 27.16C71.3961 26.68 71.2041 25.912 70.9641 24.856C70.7721 23.8 70.5561 22.648 70.3161 21.4C70.0761 20.152 69.8361 18.952 69.5961 17.8C69.4041 16.6 69.2841 15.616 69.2361 14.848C69.1401 15.616 68.9721 16.6 68.7321 17.8C68.5401 18.952 68.3241 20.152 68.0841 21.4C67.8441 22.648 67.6041 23.8 67.3641 24.856C67.1241 25.912 66.9561 26.68 66.8601 27.16L60.8121 52H46.6281L33.6681 0.591997H45.6201L51.7401 27.592C51.9801 28.6 52.2681 29.944 52.6041 31.624C52.9401 33.304 53.2521 35.032 53.5401 36.808C53.8761 38.536 54.1161 39.976 54.2601 41.128C54.4521 39.592 54.7401 37.792 55.1241 35.728C55.5081 33.616 55.8921 31.6 56.2761 29.68C56.7081 27.712 57.0681 26.176 57.3561 25.072L63.4761 0.591997H74.9241L81.0441 25.072C81.2361 25.888 81.4761 26.968 81.7641 28.312C82.0521 29.656 82.3401 31.12 82.6281 32.704C82.9161 34.24 83.1801 35.752 83.4201 37.24C83.7081 38.728 83.9241 40.024 84.0681 41.128C84.2121 39.976 84.4281 38.536 84.7161 36.808C85.0521 35.032 85.3881 33.328 85.7241 31.696C86.0601 30.016 86.3481 28.672 86.5881 27.664L92.7081 0.591997H104.66ZM139.793 52L136.625 40.984H118.841L115.673 52H102.281L119.777 0.375999H135.473L153.185 52H139.793ZM133.889 30.76L130.865 20.464C130.625 19.6 130.289 18.448 129.857 17.008C129.473 15.52 129.065 14.008 128.633 12.472C128.249 10.936 127.937 9.64 127.697 8.584C127.505 9.64 127.193 10.96 126.761 12.544C126.377 14.08 125.993 15.592 125.609 17.08C125.225 18.52 124.913 19.648 124.673 20.464L121.649 30.76H133.889Z" fill="#3FA0D3"/>
</svg>
